<?xml version="1.0" encoding="UTF-8" standalone="no"?>
<svg
   id="Livello_1"
   data-name="Livello 1"
   viewBox="0 0 240 240"
   version="1.1"
   sodipodi:docname="logo.svg"
   inkscape:version="1.2.2 (1:1.2.2+202212051552+b0a8486541)"
   xml:space="preserve"
   xmlns:inkscape="http://www.inkscape.org/namespaces/inkscape"
   xmlns:sodipodi="http://sodipodi.sourceforge.net/DTD/sodipodi-0.dtd"
   xmlns="http://www.w3.org/2000/svg"
   xmlns:svg="http://www.w3.org/2000/svg"><sodipodi:namedview
     id="namedview20"
     pagecolor="#505050"
     bordercolor="#eeeeee"
     borderopacity="1"
     inkscape:showpageshadow="0"
     inkscape:pageopacity="0"
     inkscape:pagecheckerboard="0"
     inkscape:deskcolor="#505050"
     showgrid="false"
     inkscape:zoom="2.4365721"
     inkscape:cx="267.58904"
     inkscape:cy="133.79452"
     inkscape:window-width="2560"
     inkscape:window-height="1007"
     inkscape:window-x="0"
     inkscape:window-y="0"
     inkscape:window-maximized="1"
     inkscape:current-layer="Livello_1" /><defs
     id="defs7"><linearGradient
       id="linear-gradient"
       x1="120"
       y1="240"
       x2="120"
       gradientUnits="userSpaceOnUse"
       gradientTransform="matrix(0.95097376,0,0,0.95097376,5.883149,5.883149)"><stop
         offset="0"
         stop-color="#1d93d2"
         id="stop2" /><stop
         offset="1"
         stop-color="#38b0e3"
         id="stop4" /></linearGradient></defs><title
     id="title9">Telegram_logo</title><circle
     cx="120"
     cy="120"
     r="114.11685"
     fill="url(#linear-gradient)"
     id="circle11"
     style="fill:#2ba2db;stroke-width:0.950974;fill-opacity:1" /><path
     d="m 83.129796,128.34194 13.539014,37.47407 c 0,0 1.692733,3.50624 3.50529,3.50624 1.81256,0 28.77171,-28.04611 28.77171,-28.04611 L 158.92526,83.371344 83.612891,118.66864 Z"
     fill="#c8daea"
     id="path13"
     style="stroke-width:0.950974" /><path
     d="m 101.08133,137.95248 -2.599013,27.62199 c 0,0 -1.087914,8.46366 7.373853,0 8.46176,-8.46367 16.56121,-14.9902 16.56121,-14.9902"
     fill="#a9c6d8"
     id="path15"
     style="stroke-width:0.950974;fill:#b3b3b3" /><path
     d="m 83.374197,129.67901 -27.850218,-9.07419 c 0,0 -3.328408,-1.35038 -2.256661,-4.41252 0.220626,-0.63145 0.665682,-1.16875 1.997045,-2.09214 6.170869,-4.30126 114.217657,-43.136171 114.217657,-43.136171 0,0 3.05072,-1.028003 4.84996,-0.344252 a 2.6303934,2.6303934 0 0 1 1.79259,1.954251 8.8982615,8.8982615 0 0 1 0.24155,2.458267 c -0.009,0.715132 -0.0951,1.377961 -0.16072,2.417375 -0.65807,10.617622 -20.35084,89.86036 -20.35084,89.86036 0,0 -1.17825,4.63695 -5.39963,4.79576 a 7.7314167,7.7314167 0 0 1 -5.63451,-2.17963 c -8.28394,-7.12564 -36.91586,-26.36765 -43.24268,-30.59948 a 1.2077367,1.2077367 0 0 1 -0.51924,-0.85588 c -0.0884,-0.446 0.39656,-0.99852 0.39656,-0.99852 0,0 49.85575,-44.315376 51.18236,-48.96754 0.1027,-0.360419 -0.28529,-0.538251 -0.80643,-0.380389 -3.31129,1.218197 -60.713965,37.468369 -67.049352,41.469109 a 3.0526258,3.0526258 0 0 1 -1.407441,0.0856 z"
     fill="#ffffff"
     id="path17"
     style="stroke-width:0.950974;fill:#f2f2f2" /></svg>
